<svg version="1.1" viewBox="0.0 0.0 960.0 540.0" fill="none" stroke="none" stroke-linecap="square" stroke-miterlimit="10" xmlns:xlink="http://www.w3.org/1999/xlink" xmlns="http://www.w3.org/2000/svg"><clipPath id="g1e28b169df_0_14.0"><path d="m0 0l960.0 0l0 540.0l-960.0 0l0 -540.0z" clip-rule="nonzero"/></clipPath><g clip-path="url(#g1e28b169df_0_14.0)"><path fill="#26a69a" d="m0 0l960.0 0l0 540.0l-960.0 0z" fill-rule="evenodd"/><path fill="#000000" fill-opacity="0.0" d="m51.46982 55.259842l797.1969 0l0 429.4803l-797.1969 0z" fill-rule="evenodd"/><path fill="#ffffff" d="m65.15732 291.32l0 -41.64064l27.75 0l0 5.796875l-21.171875 0l0 12.437515l17.703125 0l0 5.453125l-17.703125 0l0 17.953125l-6.578125 0zm27.923065 -8.96875q0 -2.9375 1.671875 -5.140625q1.671875 -2.203125 4.59375 -3.40625q2.9375 -1.203125 6.8125 -1.203125q2.0625 0 4.203125 0.296875q2.140625 0.296875 3.78125 0.9375l0 -1.9375q0 -3.21875 -1.9375 -5.03125q-1.9375 -1.828125 -5.578125 -1.828125q-2.578125 0 -4.875 0.921875q-2.28125 0.90625 -4.859375 2.546875l-2.171875 -4.34375q3.046875 -2.046875 6.125 -3.046875q3.09375 -1.0 6.484375 -1.0q6.171875 0 9.71875 3.265625q3.546875 3.25 3.546875 9.21875l0 11.453125q0 1.109375 0.375 1.578125q0.390625 0.46875 1.328125 0.53125l0 5.15625q-0.890625 0.171875 -1.59375 0.234375q-0.703125 0.0625 -1.171875 0.0625q-2.046875 0 -3.109375 -1.0q-1.046875 -1.0 -1.234375 -2.34375l-0.171875 -1.765625q-2.0 2.578125 -5.109375 4.0q-3.09375 1.40625 -6.265625 1.40625q-3.046875 0 -5.453125 -1.265625q-2.40625 -1.265625 -3.765625 -3.4375q-1.34375 -2.171875 -1.34375 -4.859375zm19.53125 1.875q0.703125 -0.765625 1.109375 -1.53125q0.421875 -0.765625 0.421875 -1.34375l0 -3.515625q-1.640625 -0.65625 -3.46875 -0.96875q-1.8125 -0.328125 -3.578125 -0.328125q-3.515625 0 -5.71875 1.40625q-2.1875 1.40625 -2.1875 3.875q0 1.34375 0.71875 2.578125q0.734375 1.234375 2.109375 2.0q1.390625 0.75 3.4375 0.75q2.109375 0 4.046875 -0.8125q1.9375 -0.828125 3.109375 -2.109375zm26.691483 7.6875q-3.875 0 -7.34375 -1.265625q-3.453125 -1.265625 -5.90625 -3.78125l2.40625 -4.34375q2.625 2.34375 5.296875 3.40625q2.671875 1.046875 5.3125 1.046875q2.703125 0 4.390625 -1.015625q1.703125 -1.03125 1.703125 -3.03125q0 -1.46875 -0.875 -2.171875q-0.875 -0.703125 -2.546875 -1.21875q-1.671875 -0.53125 -4.015625 -1.1875q-3.296875 -0.984375 -5.53125 -2.0625q-2.21875 -1.09375 -3.34375 -2.671875q-1.109375 -1.59375 -1.109375 -4.0625q0 -2.984375 1.53125 -5.09375q1.53125 -2.109375 4.25 -3.21875q2.734375 -1.125 6.3125 -1.125q3.34375 0 6.1875 1.03125q2.84375 1.015625 5.015625 3.1875l-2.765625 4.28125q-2.046875 -1.875 -4.1875 -2.75q-2.140625 -0.890625 -4.609375 -0.890625q-1.40625 0 -2.703125 0.328125q-1.28125 0.328125 -2.140625 1.1875q-0.84375 0.84375 -0.84375 2.359375q0 1.234375 0.703125 2.0q0.703125 0.765625 2.109375 1.296875q1.40625 0.515625 3.46875 1.171875q3.578125 1.046875 6.09375 2.078125q2.53125 1.015625 3.90625 2.640625q1.375 1.609375 1.375 4.421875q0 4.453125 -3.3125 6.953125q-3.3125 2.5 -8.828125 2.5zm34.89778 -2.171875q-0.8125 0.40625 -2.046875 0.875q-1.234375 0.46875 -2.796875 0.8125q-1.546875 0.359375 -3.1875 0.359375q-2.0 0 -3.703125 -0.703125q-1.6875 -0.703125 -2.71875 -2.25q-1.03125 -1.5625 -1.03125 -4.03125l0 -19.171875l-4.046875 0l0 -4.984375l4.046875 0l0 -10.093765l6.453125 0l0 10.093765l6.6875 0l0 4.984375l-6.6875 0l0 17.125q0.125 1.578125 1.03125 2.34375q0.90625 0.765625 2.25 0.765625q1.359375 0 2.578125 -0.46875q1.234375 -0.46875 1.828125 -0.765625l1.34375 5.109375zm17.94429 2.171875q-3.578125 0 -6.484375 -1.265625q-2.890625 -1.265625 -5.0 -3.453125q-2.109375 -2.203125 -3.265625 -5.046875q-1.140625 -2.859375 -1.140625 -6.078125q0 -4.34375 1.984375 -7.953125q2.0 -3.609375 5.578125 -5.796875q3.578125 -2.203125 8.390625 -2.203125q4.8125 0 8.296875 2.203125q3.5 2.1875 5.4375 5.765625q1.9375 3.578125 1.9375 7.6875q0 0.703125 -0.0625 1.328125q-0.0625 0.609375 -0.125 1.015625l-24.578125 0q0.1875 2.703125 1.5 4.734375q1.328125 2.015625 3.375 3.15625q2.046875 1.140625 4.390625 1.140625q2.59375 0 4.90625 -1.28125q2.3125 -1.296875 3.140625 -3.40625l5.515625 1.59375q-1.0 2.21875 -3.03125 4.015625q-2.015625 1.78125 -4.78125 2.8125q-2.75 1.03125 -5.984375 1.03125zm-9.203125 -18.078125l18.53125 0q-0.171875 -2.640625 -1.5 -4.65625q-1.3125 -2.03125 -3.34375 -3.171875q-2.015625 -1.140625 -4.484375 -1.140625q-2.390625 0 -4.421875 1.140625q-2.015625 1.140625 -3.3125 3.171875q-1.296875 2.015625 -1.46875 4.65625zm47.447327 -7.625q-3.75 0.0625 -6.65625 1.703125q-2.890625 1.640625 -4.125 4.640625l0 18.765625l-6.453125 0l0 -30.671875l5.984375 0l0 6.859375q1.578125 -3.171875 4.15625 -5.078125q2.578125 -1.90625 5.453125 -2.078125q0.59375 0 0.96875 0q0.390625 0 0.671875 0.0625l0 5.796875zm15.666092 16.140625q0 -2.9375 1.671875 -5.140625q1.671875 -2.203125 4.59375 -3.40625q2.9375 -1.203125 6.8125 -1.203125q2.0625 0 4.203125 0.296875q2.140625 0.296875 3.78125 0.9375l0 -1.9375q0 -3.21875 -1.9375 -5.03125q-1.9375 -1.828125 -5.578125 -1.828125q-2.578125 0 -4.875 0.921875q-2.28125 0.90625 -4.859375 2.546875l-2.171875 -4.34375q3.046875 -2.046875 6.125 -3.046875q3.09375 -1.0 6.484375 -1.0q6.171875 0 9.71875 3.265625q3.546875 3.25 3.546875 9.21875l0 11.453125q0 1.109375 0.375 1.578125q0.390625 0.46875 1.328125 0.53125l0 5.15625q-0.890625 0.171875 -1.59375 0.234375q-0.703125 0.0625 -1.171875 0.0625q-2.046875 0 -3.109375 -1.0q-1.046875 -1.0 -1.234375 -2.34375l-0.171875 -1.765625q-2.0 2.578125 -5.109375 4.0q-3.09375 1.40625 -6.265625 1.40625q-3.046875 0 -5.453125 -1.265625q-2.40625 -1.265625 -3.765625 -3.4375q-1.34375 -2.171875 -1.34375 -4.859375zm19.53125 1.875q0.703125 -0.765625 1.109375 -1.53125q0.421875 -0.765625 0.421875 -1.34375l0 -3.515625q-1.640625 -0.65625 -3.46875 -0.96875q-1.8125 -0.328125 -3.578125 -0.328125q-3.515625 0 -5.71875 1.40625q-2.1875 1.40625 -2.1875 3.875q0 1.34375 0.71875 2.578125q0.734375 1.234375 2.109375 2.0q1.390625 0.75 3.4375 0.75q2.109375 0 4.046875 -0.8125q1.9375 -0.828125 3.109375 -2.109375zm43.285248 7.09375l-6.4531555 0l0 -17.1875q0 -4.28125 -1.375 -6.265625q-1.375 -2.0 -4.078125 -2.0q-1.875 0 -3.71875 0.9375q-1.84375 0.9375 -3.3125 2.546875q-1.46875 1.609375 -2.109375 3.734375l0 18.234375l-6.453125 0l0 -30.671875l5.859375 0l0 6.15625q1.171875 -2.0625 3.078125 -3.546875q1.90625 -1.5 4.3125 -2.3125q2.40625 -0.828125 5.109375 -0.828125q2.75 0 4.53125 1.0q1.796875 1.0 2.828125 2.734375q1.0312805 1.71875 1.4062805 3.984375q0.375 2.25 0.375 4.765625l0 18.71875zm7.517761 0l0 -30.671875l6.453125 0l0 30.671875l-6.453125 0zm0 -35.718765l0 -7.09375l6.453125 0l0 7.09375l-6.453125 0zm61.11667 35.718765l-6.453125 0l0 -17.1875q0 -4.28125 -1.40625 -6.265625q-1.40625 -2.0 -4.109375 -2.0q-2.703125 0 -5.015625 2.03125q-2.3125 2.015625 -3.25 5.234375l0 18.1875l-6.453125 0l0 -17.1875q0 -4.28125 -1.40625 -6.265625q-1.40625 -2.0 -4.046875 -2.0q-2.703125 0 -5.015625 2.0q-2.3125 1.984375 -3.3125 5.21875l0 18.234375l-6.453125 0l0 -30.671875l5.859375 0l0 6.15625q1.828125 -3.234375 4.78125 -4.953125q2.96875 -1.734375 6.78125 -1.734375q3.8125 0 6.0 2.0q2.203125 1.984375 2.734375 4.984375q2.0 -3.40625 4.890625 -5.1875q2.90625 -1.796875 6.671875 -1.796875q2.6875 0 4.5 1.0q1.828125 1.0 2.828125 2.734375q1.0 1.71875 1.4375 3.984375q0.4375 2.25 0.4375 4.765625l0 18.71875zm5.218048 -8.96875q0 -2.9375 1.671875 -5.140625q1.671875 -2.203125 4.59375 -3.40625q2.9375 -1.203125 6.8125 -1.203125q2.0625 0 4.203125 0.296875q2.140625 0.296875 3.78125 0.9375l0 -1.9375q0 -3.21875 -1.9375 -5.03125q-1.9375 -1.828125 -5.578125 -1.828125q-2.578125 0 -4.875 0.921875q-2.28125 0.90625 -4.859375 2.546875l-2.171875 -4.34375q3.046875 -2.046875 6.125 -3.046875q3.09375 -1.0 6.484375 -1.0q6.171875 0 9.71875 3.265625q3.546875 3.25 3.546875 9.21875l0 11.453125q0 1.109375 0.375 1.578125q0.390625 0.46875 1.328125 0.53125l0 5.15625q-0.890625 0.171875 -1.59375 0.234375q-0.703125 0.0625 -1.171875 0.0625q-2.046875 0 -3.109375 -1.0q-1.046875 -1.0 -1.234375 -2.34375l-0.171875 -1.765625q-2.0 2.578125 -5.109375 4.0q-3.09375 1.40625 -6.265625 1.40625q-3.046875 0 -5.453125 -1.265625q-2.40625 -1.265625 -3.765625 -3.4375q-1.34375 -2.171875 -1.34375 -4.859375zm19.53125 1.875q0.703125 -0.765625 1.109375 -1.53125q0.421875 -0.765625 0.421875 -1.34375l0 -3.515625q-1.640625 -0.65625 -3.46875 -0.96875q-1.8125 -0.328125 -3.578125 -0.328125q-3.515625 0 -5.71875 1.40625q-2.1875 1.40625 -2.1875 3.875q0 1.34375 0.71875 2.578125q0.734375 1.234375 2.109375 2.0q1.390625 0.75 3.4375 0.75q2.109375 0 4.046875 -0.8125q1.9375 -0.828125 3.109375 -2.109375zm32.613068 5.515625q-0.8125 0.40625 -2.046875 0.875q-1.234375 0.46875 -2.796875 0.8125q-1.546875 0.359375 -3.1875 0.359375q-2.0 0 -3.703125 -0.703125q-1.6875 -0.703125 -2.71875 -2.25q-1.03125 -1.5625 -1.03125 -4.03125l0 -19.171875l-4.046875 0l0 -4.984375l4.046875 0l0 -10.093765l6.453125 0l0 10.093765l6.6875 0l0 4.984375l-6.6875 0l0 17.125q0.125 1.578125 1.03125 2.34375q0.90625 0.765625 2.25 0.765625q1.359375 0 2.578125 -0.46875q1.234375 -0.46875 1.828125 -0.765625l1.34375 5.109375zm4.464325 1.578125l0 -30.671875l6.453125 0l0 30.671875l-6.453125 0zm0 -35.718765l0 -7.09375l6.453125 0l0 7.09375l-6.453125 0zm27.976074 36.312515q-3.640625 0 -6.515625 -1.265625q-2.875 -1.265625 -4.953125 -3.484375q-2.078125 -2.234375 -3.203125 -5.078125q-1.109375 -2.84375 -1.109375 -6.078125q0 -3.21875 1.109375 -6.09375q1.125 -2.875 3.203125 -5.078125q2.078125 -2.203125 4.984375 -3.453125q2.90625 -1.265625 6.484375 -1.265625q3.578125 0 6.484375 1.265625q2.90625 1.25 4.984375 3.453125q2.078125 2.203125 3.1875 5.078125q1.125 2.875 1.125 6.09375q0 3.234375 -1.125 6.078125q-1.109375 2.84375 -3.1875 5.078125q-2.078125 2.21875 -4.984375 3.484375q-2.90625 1.265625 -6.484375 1.265625zm-9.15625 -15.84375q0 2.9375 1.234375 5.28125q1.234375 2.34375 3.28125 3.703125q2.0625 1.34375 4.640625 1.34375q2.515625 0 4.59375 -1.375q2.09375 -1.390625 3.328125 -3.765625q1.234375 -2.375 1.234375 -5.25q0 -2.921875 -1.234375 -5.265625q-1.234375 -2.359375 -3.328125 -3.734375q-2.078125 -1.375 -4.59375 -1.375q-2.578125 0 -4.640625 1.40625q-2.046875 1.40625 -3.28125 3.734375q-1.234375 2.3125 -1.234375 5.296875zm58.186005 15.25l-6.4530945 0l0 -17.1875q0 -4.28125 -1.375 -6.265625q-1.375 -2.0 -4.078125 -2.0q-1.875 0 -3.71875 0.9375q-1.84375 0.9375 -3.3125 2.546875q-1.46875 1.609375 -2.109375 3.734375l0 18.234375l-6.453125 0l0 -30.671875l5.859375 0l0 6.15625q1.171875 -2.0625 3.078125 -3.546875q1.90625 -1.5 4.3125 -2.3125q2.40625 -0.828125 5.109375 -0.828125q2.75 0 4.53125 1.0q1.7968445 1.0 2.8280945 2.734375q1.03125 1.71875 1.40625 3.984375q0.375 2.25 0.375 4.765625l0 18.71875zm32.91211 0.59375q-3.875 0 -7.34375 -1.265625q-3.453125 -1.265625 -5.90625 -3.78125l2.40625 -4.34375q2.625 2.34375 5.296875 3.40625q2.671875 1.046875 5.3125 1.046875q2.703125 0 4.390625 -1.015625q1.703125 -1.03125 1.703125 -3.03125q0 -1.46875 -0.875 -2.171875q-0.875 -0.703125 -2.546875 -1.21875q-1.671875 -0.53125 -4.015625 -1.1875q-3.296875 -0.984375 -5.53125 -2.0625q-2.21875 -1.09375 -3.34375 -2.671875q-1.109375 -1.59375 -1.109375 -4.0625q0 -2.984375 1.53125 -5.09375q1.53125 -2.109375 4.25 -3.21875q2.734375 -1.125 6.3125 -1.125q3.34375 0 6.1875 1.03125q2.84375 1.015625 5.015625 3.1875l-2.765625 4.28125q-2.046875 -1.875 -4.1875 -2.75q-2.140625 -0.890625 -4.609375 -0.890625q-1.40625 0 -2.703125 0.328125q-1.28125 0.328125 -2.140625 1.1875q-0.84375 0.84375 -0.84375 2.359375q0 1.234375 0.703125 2.0q0.703125 0.765625 2.109375 1.296875q1.40625 0.515625 3.46875 1.171875q3.578125 1.046875 6.09375 2.078125q2.53125 1.015625 3.90625 2.640625q1.375 1.609375 1.375 4.421875q0 4.453125 -3.3125 6.953125q-3.3125 2.5 -8.828125 2.5zm35.315796 0q-3.703125 0 -6.515625 -1.765625q-2.8125 -1.765625 -4.453125 -4.578125l0 18.25l-6.453125 0l0 -43.171875l5.6875 0l0 5.515625q1.765625 -2.765625 4.578125 -4.40625q2.8125 -1.640625 6.265625 -1.640625q3.171875 0 5.8125 1.265625q2.640625 1.25 4.578125 3.484375q1.9375 2.234375 3.015625 5.078125q1.09375 2.84375 1.09375 6.0q0 4.40625 -1.734375 8.046875q-1.734375 3.625 -4.8125 5.78125q-3.078125 2.140625 -7.0625 2.140625zm-2.109375 -5.515625q2.046875 0 3.71875 -0.875q1.671875 -0.890625 2.875 -2.359375q1.203125 -1.46875 1.84375 -3.34375q0.640625 -1.875 0.640625 -3.875q0 -2.109375 -0.703125 -3.984375q-0.703125 -1.875 -2.03125 -3.28125q-1.3125 -1.40625 -3.046875 -2.21875q-1.71875 -0.828125 -3.765625 -0.828125q-1.234375 0 -2.59375 0.46875q-1.34375 0.46875 -2.515625 1.296875q-1.171875 0.8125 -2.0625 1.9375q-0.875 1.109375 -1.21875 2.328125l0 8.046875q0.8125 1.875 2.15625 3.375q1.359375 1.484375 3.109375 2.40625q1.765625 0.90625 3.59375 0.90625zm35.414246 5.515625q-3.578125 0 -6.484375 -1.265625q-2.890625 -1.265625 -5.0 -3.453125q-2.109375 -2.203125 -3.265625 -5.046875q-1.140625 -2.859375 -1.140625 -6.078125q0 -4.34375 1.984375 -7.953125q2.0 -3.609375 5.578125 -5.796875q3.578125 -2.203125 8.390625 -2.203125q4.8125 0 8.296875 2.203125q3.5 2.1875 5.4375 5.765625q1.9375 3.578125 1.9375 7.6875q0 0.703125 -0.0625 1.328125q-0.0625 0.609375 -0.125 1.015625l-24.578125 0q0.1875 2.703125 1.5 4.734375q1.328125 2.015625 3.375 3.15625q2.046875 1.140625 4.390625 1.140625q2.59375 0 4.90625 -1.28125q2.3125 -1.296875 3.140625 -3.40625l5.515625 1.59375q-1.0 2.21875 -3.03125 4.015625q-2.015625 1.78125 -4.78125 2.8125q-2.75 1.03125 -5.984375 1.03125zm-9.203125 -18.078125l18.53125 0q-0.171875 -2.640625 -1.5 -4.65625q-1.3125 -2.03125 -3.34375 -3.171875q-2.015625 -1.140625 -4.484375 -1.140625q-2.390625 0 -4.421875 1.140625q-2.015625 1.140625 -3.3125 3.171875q-1.296875 2.015625 -1.46875 4.65625zm44.103577 18.078125q-3.578125 0 -6.484375 -1.265625q-2.890625 -1.265625 -5.0 -3.453125q-2.109375 -2.203125 -3.265625 -5.046875q-1.140625 -2.859375 -1.140625 -6.078125q0 -4.34375 1.984375 -7.953125q2.0 -3.609375 5.578125 -5.796875q3.578125 -2.203125 8.390625 -2.203125q4.8125 0 8.296875 2.203125q3.5 2.1875 5.4375 5.765625q1.9375 3.578125 1.9375 7.6875q0 0.703125 -0.0625 1.328125q-0.0625 0.609375 -0.125 1.015625l-24.578125 0q0.1875 2.703125 1.5 4.734375q1.328125 2.015625 3.375 3.15625q2.046875 1.140625 4.390625 1.140625q2.59375 0 4.90625 -1.28125q2.3125 -1.296875 3.140625 -3.40625l5.515625 1.59375q-1.0 2.21875 -3.03125 4.015625q-2.015625 1.78125 -4.78125 2.8125q-2.75 1.03125 -5.984375 1.03125zm-9.203125 -18.078125l18.53125 0q-0.171875 -2.640625 -1.5 -4.65625q-1.3125 -2.03125 -3.34375 -3.171875q-2.015625 -1.140625 -4.484375 -1.140625q-2.390625 0 -4.421875 1.140625q-2.015625 1.140625 -3.3125 3.171875q-1.296875 2.015625 -1.46875 4.65625zm28.275452 2.171875q0 -4.390625 1.78125 -8.0q1.796875 -3.609375 4.90625 -5.75q3.109375 -2.140625 7.15625 -2.140625q3.515625 0 6.359375 1.828125q2.84375 1.8125 4.4375 4.5l0 -17.937515l6.453125 0l0 35.54689q0 1.109375 0.40625 1.578125q0.40625 0.46875 1.34375 0.53125l0 5.15625q-1.8125 0.296875 -2.8125 0.296875q-1.8125 0 -3.078125 -1.046875q-1.265625 -1.0625 -1.328125 -2.53125l-0.046875 -2.296875q-1.765625 2.9375 -4.765625 4.5625q-2.984375 1.609375 -6.203125 1.609375q-3.171875 0 -5.84375 -1.234375q-2.671875 -1.234375 -4.640625 -3.453125q-1.953125 -2.234375 -3.046875 -5.109375q-1.078125 -2.875 -1.078125 -6.109375zm24.640625 4.28125l0 -8.03125q-0.65625 -1.875 -2.09375 -3.375q-1.4375 -1.5 -3.234375 -2.375q-1.78125 -0.875 -3.53125 -0.875q-2.0625 0 -3.734375 0.875q-1.671875 0.875 -2.875 2.34375q-1.203125 1.46875 -1.84375 3.34375q-0.640625 1.875 -0.640625 3.9375q0 2.109375 0.703125 3.953125q0.703125 1.84375 2.015625 3.28125q1.328125 1.4375 3.046875 2.234375q1.734375 0.796875 3.796875 0.796875q1.28125 0 2.59375 -0.46875q1.328125 -0.46875 2.53125 -1.296875q1.203125 -0.828125 2.046875 -1.9375q0.859375 -1.109375 1.21875 -2.40625zm12.669739 -17.59375l1.21875 -6.9218903l-1.984375 0l0 -7.265625l6.265625 0l0 7.328125l-1.875 6.8593903l-3.625 0zm19.289795 29.21875q-3.875 0 -7.34375 -1.265625q-3.453125 -1.265625 -5.90625 -3.78125l2.40625 -4.34375q2.625 2.34375 5.296875 3.40625q2.671875 1.046875 5.3125 1.046875q2.703125 0 4.390625 -1.015625q1.703125 -1.03125 1.703125 -3.03125q0 -1.46875 -0.875 -2.171875q-0.875 -0.703125 -2.546875 -1.21875q-1.671875 -0.53125 -4.015625 -1.1875q-3.296875 -0.984375 -5.53125 -2.0625q-2.21875 -1.09375 -3.34375 -2.671875q-1.109375 -1.59375 -1.109375 -4.0625q0 -2.984375 1.53125 -5.09375q1.53125 -2.109375 4.25 -3.21875q2.734375 -1.125 6.3125 -1.125q3.34375 0 6.1875 1.03125q2.84375 1.015625 5.015625 3.1875l-2.765625 4.28125q-2.046875 -1.875 -4.1875 -2.75q-2.140625 -0.890625 -4.609375 -0.890625q-1.40625 0 -2.703125 0.328125q-1.28125 0.328125 -2.140625 1.1875q-0.84375 0.84375 -0.84375 2.359375q0 1.234375 0.703125 2.0q0.703125 0.765625 2.109375 1.296875q1.40625 0.515625 3.46875 1.171875q3.578125 1.046875 6.09375 2.078125q2.53125 1.015625 3.90625 2.640625q1.375 1.609375 1.375 4.421875q0 4.453125 -3.3125 6.953125q-3.3125 2.5 -8.828125 2.5z" fill-rule="nonzero"/><path fill="#ffffff" d="m498.86615 417.53018l0 0c0 8.708984 -7.060028 15.769043 -15.769043 15.769043l-42.236206 0l0 0l-87.00787 0l-187.24936 0c-4.182205 0 -8.193115 -1.661377 -11.150375 -4.6186523c-2.9572754 -2.9572754 -4.6186523 -6.96817 -4.6186523 -11.150391l0 -39.422577l0 0l0 -23.653534l0 0c0 -8.708984 7.0600433 -15.769043 15.769028 -15.769043l187.24936 0l43.502777 -11.826752l43.505096 11.826752l42.236206 0c8.709015 0 15.769043 7.0600586 15.769043 15.769043l0 0l0 23.653534l0 0z" fill-rule="evenodd"/><path fill="#000000" fill-opacity="0.0" d="m161.3412 354.74802l348.0315 0l0 78.48819l-348.0315 0z" fill-rule="evenodd"/><path fill="#26a69a" d="m187.12245 386.78802l0 -13.015625l-5.625 10.015625l-1.3125 0l-5.640625 -10.015625l0 13.015625l-2.15625 0l0 -17.046875l2.265625 0l6.171875 11.078125l6.203125 -11.078125l2.25 0l0 17.046875l-2.15625 0zm11.150558 0.234375q-1.40625 0 -2.5625 -0.515625q-1.15625 -0.515625 -2.0 -1.40625q-0.828125 -0.90625 -1.296875 -2.078125q-0.453125 -1.171875 -0.453125 -2.46875q0 -1.328125 0.453125 -2.5q0.46875 -1.171875 1.296875 -2.078125q0.84375 -0.90625 2.0 -1.421875q1.171875 -0.515625 2.59375 -0.515625q1.390625 0 2.53125 0.515625q1.15625 0.515625 2.0 1.421875q0.859375 0.90625 1.3125 2.078125q0.46875 1.171875 0.46875 2.5q0 1.296875 -0.46875 2.46875q-0.453125 1.171875 -1.296875 2.078125q-0.828125 0.890625 -2.0 1.40625q-1.15625 0.515625 -2.578125 0.515625zm-4.140625 -6.453125q0 1.296875 0.5625 2.359375q0.5625 1.046875 1.5 1.671875q0.9375 0.609375 2.078125 0.609375q1.15625 0 2.09375 -0.625q0.953125 -0.625 1.515625 -1.6875q0.578125 -1.078125 0.578125 -2.375q0 -1.296875 -0.578125 -2.34375q-0.5625 -1.0625 -1.515625 -1.6875q-0.9375 -0.625 -2.09375 -0.625q-1.140625 0 -2.078125 0.640625q-0.9375 0.640625 -1.5 1.703125q-0.5625 1.046875 -0.5625 2.359375zm19.672836 -4.46875q-1.578125 0.03125 -2.796875 0.8125q-1.21875 0.78125 -1.71875 2.140625l0 7.734375l-2.109375 0l0 -12.53125l1.96875 0l0 2.90625q0.640625 -1.296875 1.703125 -2.09375q1.078125 -0.8125 2.25 -0.90625q0.25 0 0.40625 0q0.171875 0 0.296875 0.03125l0 1.90625zm7.3458557 10.921875q-1.421875 0 -2.59375 -0.515625q-1.15625 -0.515625 -2.015625 -1.40625q-0.84375 -0.90625 -1.3125 -2.078125q-0.46875 -1.171875 -0.46875 -2.5q0 -1.78125 0.8125 -3.234375q0.828125 -1.46875 2.28125 -2.359375q1.453125 -0.890625 3.3125 -0.890625q1.90625 0 3.296875 0.90625q1.40625 0.90625 2.1875 2.359375q0.78125 1.4375 0.78125 3.125q0 0.234375 -0.015625 0.46875q0 0.234375 -0.03125 0.34375l-10.390625 0q0.09375 1.234375 0.6875 2.1875q0.59375 0.9375 1.515625 1.484375q0.9375 0.53125 2.015625 0.53125q1.15625 0 2.171875 -0.578125q1.03125 -0.578125 1.40625 -1.515625l1.828125 0.515625q-0.40625 0.90625 -1.21875 1.625q-0.796875 0.71875 -1.890625 1.125q-1.09375 0.40625 -2.359375 0.40625zm-4.21875 -7.25l8.53125 0q-0.09375 -1.21875 -0.703125 -2.15625q-0.59375 -0.9375 -1.53125 -1.453125q-0.921875 -0.53125 -2.0625 -0.53125q-1.09375 0 -2.03125 0.53125q-0.9375 0.515625 -1.53125 1.453125q-0.578125 0.9375 -0.671875 2.15625zm25.67781 7.25q-1.546875 0 -2.75 -0.765625q-1.1875 -0.765625 -1.890625 -1.9375l0 7.578125l-2.109375 0l0 -17.640625l1.875 0l0 2.359375q0.734375 -1.15625 1.9375 -1.859375q1.203125 -0.71875 2.625 -0.71875q1.296875 0 2.375 0.53125q1.078125 0.53125 1.859375 1.453125q0.796875 0.90625 1.234375 2.078125q0.453125 1.15625 0.453125 2.421875q0 1.78125 -0.71875 3.265625q-0.703125 1.484375 -1.96875 2.359375q-1.265625 0.875 -2.921875 0.875zm-0.65625 -1.8125q0.9375 0 1.6875 -0.390625q0.765625 -0.40625 1.296875 -1.0625q0.546875 -0.671875 0.828125 -1.5q0.296875 -0.84375 0.296875 -1.734375q0 -0.9375 -0.328125 -1.765625q-0.328125 -0.84375 -0.921875 -1.484375q-0.578125 -0.65625 -1.359375 -1.03125q-0.78125 -0.375 -1.6875 -0.375q-0.578125 0 -1.1875 0.21875q-0.609375 0.21875 -1.171875 0.609375q-0.546875 0.390625 -0.9375 0.90625q-0.375 0.5 -0.5 1.078125l0 3.578125q0.359375 0.8125 0.953125 1.484375q0.609375 0.671875 1.390625 1.078125q0.796875 0.390625 1.640625 0.390625zm15.483215 -9.109375q-1.5781403 0.03125 -2.7968903 0.8125q-1.21875 0.78125 -1.71875 2.140625l0 7.734375l-2.109375 0l0 -12.53125l1.96875 0l0 2.90625q0.640625 -1.296875 1.703125 -2.09375q1.078125 -0.8125 2.2500153 -0.90625q0.25 0 0.40625 0q0.171875 0 0.296875 0.03125l0 1.90625zm7.3458557 10.921875q-1.421875 0 -2.59375 -0.515625q-1.15625 -0.515625 -2.015625 -1.40625q-0.84375 -0.90625 -1.3125 -2.078125q-0.46875 -1.171875 -0.46875 -2.5q0 -1.78125 0.8125 -3.234375q0.828125 -1.46875 2.28125 -2.359375q1.453125 -0.890625 3.3125 -0.890625q1.90625 0 3.296875 0.90625q1.40625 0.90625 2.1875 2.359375q0.78125 1.4375 0.78125 3.125q0 0.234375 -0.015625 0.46875q0 0.234375 -0.03125 0.34375l-10.390625 0q0.09375 1.234375 0.6875 2.1875q0.59375 0.9375 1.515625 1.484375q0.9375 0.53125 2.015625 0.53125q1.15625 0 2.171875 -0.578125q1.03125 -0.578125 1.40625 -1.515625l1.828125 0.515625q-0.40625 0.90625 -1.21875 1.625q-0.796875 0.71875 -1.890625 1.125q-1.09375 0.40625 -2.359375 0.40625zm-4.21875 -7.25l8.53125 0q-0.09375 -1.21875 -0.703125 -2.15625q-0.59375 -0.9375 -1.53125 -1.453125q-0.921875 -0.53125 -2.0625 -0.53125q-1.09375 0 -2.03125 0.53125q-0.9375 0.515625 -1.53125 1.453125q-0.578125 0.9375 -0.671875 2.15625zm13.3836975 7.015625l0 -10.875l-1.703125 0l0 -1.65625l1.703125 0l0 -0.265625q0 -1.53125 0.46875 -2.640625q0.46875 -1.125 1.328125 -1.71875q0.875 -0.609375 2.046875 -0.609375q0.734375 0 1.453125 0.203125q0.734375 0.203125 1.296875 0.578125l-0.515625 1.546875q-0.34375 -0.234375 -0.84375 -0.375q-0.484375 -0.140625 -0.96875 -0.140625q-1.03125 0 -1.59375 0.796875q-0.5625 0.796875 -0.5625 2.296875l0 0.328125l3.34375 0l0 1.65625l-3.34375 0l0 10.875l-2.109375 0zm12.819 0.234375q-1.421875 0 -2.59375 -0.515625q-1.15625 -0.515625 -2.015625 -1.40625q-0.84375 -0.90625 -1.3125 -2.078125q-0.46875 -1.171875 -0.46875 -2.5q0 -1.78125 0.8125 -3.234375q0.828125 -1.46875 2.28125 -2.359375q1.453125 -0.890625 3.3125 -0.890625q1.90625 0 3.296875 0.90625q1.40625 0.90625 2.1875 2.359375q0.78125 1.4375 0.78125 3.125q0 0.234375 -0.015625 0.46875q0 0.234375 -0.03125 0.34375l-10.390625 0q0.09375 1.234375 0.6875 2.1875q0.59375 0.9375 1.515625 1.484375q0.9375 0.53125 2.015625 0.53125q1.15625 0 2.171875 -0.578125q1.03125 -0.578125 1.40625 -1.515625l1.828125 0.515625q-0.40625 0.90625 -1.21875 1.625q-0.796875 0.71875 -1.890625 1.125q-1.09375 0.40625 -2.359375 0.40625zm-4.21875 -7.25l8.53125 0q-0.09375 -1.21875 -0.703125 -2.15625q-0.59375 -0.9375 -1.53125 -1.453125q-0.921875 -0.53125 -2.0625 -0.53125q-1.09375 0 -2.03125 0.53125q-0.9375 0.515625 -1.53125 1.453125q-0.578125 0.9375 -0.671875 2.15625zm19.480835 -3.671875q-1.578125 0.03125 -2.796875 0.8125q-1.21875 0.78125 -1.71875 2.140625l0 7.734375l-2.109375 0l0 -12.53125l1.96875 0l0 2.90625q0.640625 -1.296875 1.703125 -2.09375q1.078125 -0.8125 2.25 -0.90625q0.25 0 0.40625 0q0.171875 0 0.296875 0.03125l0 1.90625zm7.3458557 10.921875q-1.421875 0 -2.59375 -0.515625q-1.15625 -0.515625 -2.015625 -1.40625q-0.84375 -0.90625 -1.3125 -2.078125q-0.46875 -1.171875 -0.46875 -2.5q0 -1.78125 0.8125 -3.234375q0.828125 -1.46875 2.28125 -2.359375q1.453125 -0.890625 3.3125 -0.890625q1.90625 0 3.296875 0.90625q1.40625 0.90625 2.1875 2.359375q0.78125 1.4375 0.78125 3.125q0 0.234375 -0.015625 0.46875q0 0.234375 -0.03125 0.34375l-10.390625 0q0.09375 1.234375 0.6875 2.1875q0.59375 0.9375 1.515625 1.484375q0.9375 0.53125 2.015625 0.53125q1.15625 0 2.171875 -0.578125q1.03125 -0.578125 1.40625 -1.515625l1.828125 0.515625q-0.40625 0.90625 -1.21875 1.625q-0.796875 0.71875 -1.890625 1.125q-1.09375 0.40625 -2.359375 0.40625zm-4.21875 -7.25l8.53125 0q-0.09375 -1.21875 -0.703125 -2.15625q-0.59375 -0.9375 -1.53125 -1.453125q-0.921875 -0.53125 -2.0625 -0.53125q-1.09375 0 -2.03125 0.53125q-0.9375 0.515625 -1.53125 1.453125q-0.578125 0.9375 -0.671875 2.15625zm12.043335 0.78125q0 -1.78125 0.734375 -3.25q0.734375 -1.484375 2.015625 -2.375q1.28125 -0.890625 2.9375 -0.890625q1.515625 0 2.703125 0.796875q1.203125 0.796875 1.875 1.921875l0 -7.484375l2.109375 0l0 15.109375q0 0.390625 0.15625 0.578125q0.15625 0.171875 0.515625 0.203125l0 1.625q-0.59375 0.09375 -0.921875 0.09375q-0.625 0 -1.09375 -0.421875q-0.46875 -0.4375 -0.46875 -0.96875l0 -1.0625q-0.75 1.203125 -2.0 1.90625q-1.25 0.6875 -2.59375 0.6875q-1.296875 0 -2.390625 -0.515625q-1.078125 -0.515625 -1.890625 -1.421875q-0.796875 -0.90625 -1.25 -2.0625q-0.4375 -1.171875 -0.4375 -2.46875zm10.265625 1.84375l0 -3.59375q-0.28125 -0.828125 -0.9375 -1.484375q-0.640625 -0.65625 -1.453125 -1.046875q-0.796875 -0.40625 -1.59375 -0.40625q-0.9375 0 -1.6875 0.40625q-0.75 0.390625 -1.296875 1.046875q-0.546875 0.65625 -0.828125 1.5q-0.28125 0.84375 -0.28125 1.75q0 0.9375 0.3125 1.78125q0.328125 0.84375 0.90625 1.5q0.59375 0.640625 1.375 1.0q0.78125 0.359375 1.703125 0.359375q0.5625 0 1.171875 -0.21875q0.625 -0.21875 1.171875 -0.59375q0.546875 -0.390625 0.9375 -0.90625q0.390625 -0.515625 0.5 -1.09375zm5.4709473 4.390625l0 -2.6875l1.78125 0l0 2.6875l-1.78125 0zm4.847992 0l0 -2.6875l1.78125 0l0 2.6875l-1.78125 0zm4.847992 0l0 -2.6875l1.78125 0l0 2.6875l-1.78125 0zm15.894867 0l-2.109375 0l0 -7.015625q0 -1.90625 -0.6875 -2.859375q-0.6875 -0.96875 -1.953125 -0.96875q-0.8125 0 -1.640625 0.4375q-0.828125 0.421875 -1.453125 1.15625q-0.625 0.734375 -0.921875 1.6875l0 7.5625l-2.109375 0l0 -17.515625l2.109375 0l0 7.671875q0.75 -1.34375 2.03125 -2.125q1.28125 -0.78125 2.765625 -0.78125q1.140625 0 1.890625 0.40625q0.75 0.390625 1.203125 1.109375q0.46875 0.71875 0.671875 1.671875q0.203125 0.953125 0.203125 2.078125l0 7.484375zm2.3005981 -3.625q0 -1.203125 0.6875 -2.078125q0.6875 -0.875 1.875 -1.34375q1.203125 -0.484375 2.796875 -0.484375q0.828125 0 1.765625 0.140625q0.9375 0.125 1.65625 0.375l0 -0.90625q0 -1.4375 -0.859375 -2.265625q-0.859375 -0.828125 -2.453125 -0.828125q-1.03125 0 -1.984375 0.375q-0.9375 0.375 -2.0 1.0625l-0.765625 -1.484375q1.21875 -0.84375 2.4375 -1.265625q1.234375 -0.421875 2.5625 -0.421875q2.390625 0 3.78125 1.34375q1.390625 1.328125 1.390625 3.703125l0 5.296875q0 0.390625 0.15625 0.578125q0.15625 0.171875 0.515625 0.203125l0 1.625q-0.3125 0.046875 -0.546875 0.0625q-0.21875 0.03125 -0.359375 0.03125q-0.75 0 -1.125 -0.40625q-0.359375 -0.40625 -0.40625 -0.859375l-0.046875 -0.796875q-0.828125 1.0625 -2.140625 1.640625q-1.3125 0.5625 -2.609375 0.5625q-1.25 0 -2.234375 -0.515625q-0.984375 -0.515625 -1.546875 -1.390625q-0.546875 -0.875 -0.546875 -1.953125zm8.15625 0.890625q0.296875 -0.34375 0.453125 -0.6875q0.171875 -0.34375 0.171875 -0.59375l0 -1.546875q-0.734375 -0.296875 -1.5625 -0.453125q-0.8125 -0.15625 -1.59375 -0.15625q-1.609375 0 -2.609375 0.640625q-1.0 0.640625 -1.0 1.734375q0 0.609375 0.328125 1.171875q0.328125 0.5625 0.953125 0.921875q0.640625 0.359375 1.578125 0.359375q0.984375 0 1.875 -0.390625q0.890625 -0.40625 1.40625 -1.0zm12.749084 -7.953125q-1.578125 0.03125 -2.796875 0.8125q-1.21875 0.78125 -1.71875 2.140625l0 7.734375l-2.109375 0l0 -12.53125l1.96875 0l0 2.90625q0.640625 -1.296875 1.703125 -2.09375q1.078125 -0.8125 2.25 -0.90625q0.25 0 0.40625 0q0.171875 0 0.296875 0.03125l0 1.90625zm1.0584717 4.453125q0 -1.78125 0.734375 -3.25q0.734375 -1.484375 2.015625 -2.375q1.28125 -0.890625 2.9375 -0.890625q1.515625 0 2.703125 0.796875q1.203125 0.796875 1.875 1.921875l0 -7.484375l2.109375 0l0 15.109375q0 0.390625 0.15625 0.578125q0.15625 0.171875 0.515625 0.203125l0 1.625q-0.59375 0.09375 -0.921875 0.09375q-0.625 0 -1.09375 -0.421875q-0.46875 -0.4375 -0.46875 -0.96875l0 -1.0625q-0.75 1.203125 -2.0 1.90625q-1.25 0.6875 -2.59375 0.6875q-1.296875 0 -2.390625 -0.515625q-1.078125 -0.515625 -1.890625 -1.421875q-0.796875 -0.90625 -1.25 -2.0625q-0.4375 -1.171875 -0.4375 -2.46875zm10.265625 1.84375l0 -3.59375q-0.28125 -0.828125 -0.9375 -1.484375q-0.640625 -0.65625 -1.453125 -1.046875q-0.796875 -0.40625 -1.59375 -0.40625q-0.9375 0 -1.6875 0.40625q-0.75 0.390625 -1.296875 1.046875q-0.546875 0.65625 -0.828125 1.5q-0.28125 0.84375 -0.28125 1.75q0 0.9375 0.3125 1.78125q0.328125 0.84375 0.90625 1.5q0.59375 0.640625 1.375 1.0q0.78125 0.359375 1.703125 0.359375q0.5625 0 1.171875 -0.21875q0.625 -0.21875 1.171875 -0.59375q0.546875 -0.390625 0.9375 -0.90625q0.390625 -0.515625 0.5 -1.09375zm18.199188 3.765625q-0.265625 0.125 -0.71875 0.3125q-0.453125 0.1875 -1.0625 0.328125q-0.59375 0.15625 -1.265625 0.15625q-0.765625 0 -1.421875 -0.28125q-0.640625 -0.28125 -1.03125 -0.859375q-0.390625 -0.59375 -0.390625 -1.484375l0 -8.421875l-1.703125 0l0 -1.65625l1.703125 0l0 -4.171875l2.125 0l0 4.171875l2.796875 0l0 1.65625l-2.796875 0l0 7.78125q0.046875 0.671875 0.453125 1.0q0.40625 0.3125 0.953125 0.3125q0.625 0 1.15625 -0.203125q0.53125 -0.21875 0.703125 -0.3125l0.5 1.671875zm7.2643433 0.859375q-1.40625 0 -2.5625 -0.515625q-1.15625 -0.515625 -2.0 -1.40625q-0.828125 -0.90625 -1.296875 -2.078125q-0.453125 -1.171875 -0.453125 -2.46875q0 -1.328125 0.453125 -2.5q0.46875 -1.171875 1.296875 -2.078125q0.84375 -0.90625 2.0 -1.421875q1.171875 -0.515625 2.59375 -0.515625q1.390625 0 2.53125 0.515625q1.15625 0.515625 2.0 1.421875q0.859375 0.90625 1.3125 2.078125q0.46875 1.171875 0.46875 2.5q0 1.296875 -0.46875 2.46875q-0.453125 1.171875 -1.296875 2.078125q-0.828125 0.890625 -2.0 1.40625q-1.15625 0.515625 -2.578125 0.515625zm-4.140625 -6.453125q0 1.296875 0.5625 2.359375q0.5625 1.046875 1.5 1.671875q0.9375 0.609375 2.078125 0.609375q1.15625 0 2.09375 -0.625q0.953125 -0.625 1.515625 -1.6875q0.578125 -1.078125 0.578125 -2.375q0 -1.296875 -0.578125 -2.34375q-0.5625 -1.0625 -1.515625 -1.6875q-0.9375 -0.625 -2.09375 -0.625q-1.140625 0 -2.078125 0.640625q-0.9375 0.640625 -1.5 1.703125q-0.5625 1.046875 -0.5625 2.359375zm25.604187 5.59375q-0.265625 0.125 -0.71875 0.3125q-0.453125 0.1875 -1.0625 0.328125q-0.59375 0.15625 -1.265625 0.15625q-0.765625 0 -1.421875 -0.28125q-0.640625 -0.28125 -1.03125 -0.859375q-0.390625 -0.59375 -0.390625 -1.484375l0 -8.421875l-1.703125 0l0 -1.65625l1.703125 0l0 -4.171875l2.125 0l0 4.171875l2.796875 0l0 1.65625l-2.796875 0l0 7.78125q0.046875 0.671875 0.453125 1.0q0.40625 0.3125 0.953125 0.3125q0.625 0 1.15625 -0.203125q0.53125 -0.21875 0.703125 -0.3125l0.5 1.671875zm7.3424683 0.859375q-1.421875 0 -2.59375 -0.515625q-1.15625 -0.515625 -2.015625 -1.40625q-0.84375 -0.90625 -1.3125 -2.078125q-0.46875 -1.171875 -0.46875 -2.5q0 -1.78125 0.8125 -3.234375q0.828125 -1.46875 2.28125 -2.359375q1.453125 -0.890625 3.3125 -0.890625q1.90625 0 3.296875 0.90625q1.40625 0.90625 2.1875 2.359375q0.78125 1.4375 0.78125 3.125q0 0.234375 -0.015625 0.46875q0 0.234375 -0.03125 0.34375l-10.390625 0q0.09375 1.234375 0.6875 2.1875q0.59375 0.9375 1.515625 1.484375q0.9375 0.53125 2.015625 0.53125q1.15625 0 2.171875 -0.578125q1.03125 -0.578125 1.40625 -1.515625l1.828125 0.515625q-0.40625 0.90625 -1.21875 1.625q-0.796875 0.71875 -1.890625 1.125q-1.09375 0.40625 -2.359375 0.40625zm-4.21875 -7.25l8.53125 0q-0.09375 -1.21875 -0.703125 -2.15625q-0.59375 -0.9375 -1.53125 -1.453125q-0.921875 -0.53125 -2.0625 -0.53125q-1.09375 0 -2.03125 0.53125q-0.9375 0.515625 -1.53125 1.453125q-0.578125 0.9375 -0.671875 2.15625zm12.90271 -10.5l2.109375 0l0 14.28125q0 1.03125 0.28125 1.265625q0.296875 0.234375 0.703125 0.234375q0.515625 0 0.96875 -0.09375q0.453125 -0.109375 0.765625 -0.234375l0.328125 1.71875q-0.515625 0.21875 -1.25 0.359375q-0.71875 0.15625 -1.265625 0.15625q-1.21875 0 -1.9375 -0.6875q-0.703125 -0.703125 -0.703125 -1.953125l0 -15.046875zm6.863983 0l2.109375 0l0 14.28125q0 1.03125 0.28125 1.265625q0.296875 0.234375 0.703125 0.234375q0.515625 0 0.96875 -0.09375q0.453125 -0.109375 0.765625 -0.234375l0.328125 1.71875q-0.515625 0.21875 -1.25 0.359375q-0.71875 0.15625 -1.265625 0.15625q-1.21875 0 -1.9375 -0.6875q-0.703125 -0.703125 -0.703125 -1.953125l0 -15.046875z" fill-rule="nonzero"/><path fill="#ffffff" d="m509.3727 116.20735l0 0c0 -8.709 7.060028 -15.769028 15.769012 -15.769028l49.795288 0l0 0l98.346436 0l213.70605 0c4.18219 0 8.193115 1.6613693 11.150391 4.618637c2.9572754 2.9572678 4.6186523 6.968178 4.6186523 11.150391l0 39.422577l0 0l0 23.653534l0 0c0 8.709 -7.0600586 15.769028 -15.769043 15.769028l-213.70605 0l-49.171875 11.826782l-49.17456 -11.826782l-49.795288 0c-8.708984 0 -15.769012 -7.060028 -15.769012 -15.769028l0 0l0 -23.653534l0 0z" fill-rule="evenodd"/><path fill="#000000" fill-opacity="0.0" d="m529.2782 108.438324l385.57483 0l0 78.48819l-385.57483 0z" fill-rule="evenodd"/><path fill="#26a69a" d="m550.3251 127.009575q-0.28125 -0.328125 -0.765625 -0.640625q-0.484375 -0.3125 -1.09375 -0.5625q-0.59375 -0.25 -1.296875 -0.40625q-0.703125 -0.15625 -1.46875 -0.15625q-1.96875 0 -2.90625 0.75q-0.9375 0.734375 -0.9375 2.0312424q0 0.90625 0.46875 1.4375q0.484375 0.53125 1.484375 0.875q1.0 0.328125 2.53125 0.6875q1.78125 0.375 3.078125 0.9375q1.296875 0.546875 1.984375 1.46875q0.703125 0.921875 0.703125 2.46875q0 1.21875 -0.46875 2.125q-0.46875 0.890625 -1.3125 1.484375q-0.84375 0.578125 -1.96875 0.859375q-1.125 0.28125 -2.453125 0.28125q-1.28125 0 -2.53125 -0.28125q-1.234375 -0.28125 -2.34375 -0.796875q-1.09375 -0.53125 -2.046875 -1.328125l1.03125 -1.828125q0.375 0.421875 0.984375 0.8125q0.625 0.390625 1.390625 0.734375q0.78125 0.328125 1.6875 0.53125q0.921875 0.203125 1.890625 0.203125q1.8125 0 2.8125 -0.65625q1.015625 -0.65625 1.015625 -1.9375q0 -0.953125 -0.5625 -1.53125q-0.5625 -0.578125 -1.671875 -0.953125q-1.09375 -0.390625 -2.6875 -0.765625q-1.71875 -0.4375 -2.90625 -0.953125q-1.171875 -0.515625 -1.765625 -1.359375q-0.578125 -0.84375 -0.578125 -2.1875q0 -1.6249924 0.78125 -2.7499924q0.796875 -1.140625 2.1875 -1.703125q1.40625 -0.578125 3.15625 -0.578125q1.140625 0 2.140625 0.234375q1.0 0.234375 1.859375 0.671875q0.875 0.4375 1.59375 1.03125l-1.015625 1.75zm9.819092 13.703117q-1.421875 0 -2.59375 -0.515625q-1.15625 -0.515625 -2.015625 -1.40625q-0.84375 -0.90625 -1.3125 -2.078125q-0.46875 -1.171875 -0.46875 -2.5q0 -1.78125 0.8125 -3.234375q0.828125 -1.46875 2.28125 -2.359375q1.453125 -0.8906174 3.3125 -0.8906174q1.90625 0 3.296875 0.9062424q1.40625 0.90625 2.1875 2.359375q0.78125 1.4375 0.78125 3.125q0 0.234375 -0.015625 0.46875q0 0.234375 -0.03125 0.34375l-10.390625 0q0.09375 1.234375 0.6875 2.1875q0.59375 0.9375 1.515625 1.484375q0.9375 0.53125 2.015625 0.53125q1.15625 0 2.171875 -0.578125q1.03125 -0.578125 1.40625 -1.515625l1.828125 0.515625q-0.40625 0.90625 -1.21875 1.625q-0.796875 0.71875 -1.890625 1.125q-1.09375 0.40625 -2.359375 0.40625zm-4.21875 -7.25l8.53125 0q-0.09375 -1.21875 -0.703125 -2.15625q-0.59375 -0.9375 -1.53125 -1.453125q-0.921875 -0.53125 -2.0625 -0.53125q-1.09375 0 -2.03125 0.53125q-0.9375 0.515625 -1.53125 1.453125q-0.578125 0.9375 -0.671875 2.15625zm18.40271 7.25q-1.421875 0 -2.59375 -0.515625q-1.15625 -0.515625 -2.015625 -1.40625q-0.84375 -0.90625 -1.3125 -2.078125q-0.46875 -1.171875 -0.46875 -2.5q0 -1.78125 0.8125 -3.234375q0.828125 -1.46875 2.28125 -2.359375q1.453125 -0.8906174 3.3125 -0.8906174q1.90625 0 3.296875 0.9062424q1.40625 0.90625 2.1875 2.359375q0.78125 1.4375 0.78125 3.125q0 0.234375 -0.015625 0.46875q0 0.234375 -0.03125 0.34375l-10.390625 0q0.09375 1.234375 0.6875 2.1875q0.59375 0.9375 1.515625 1.484375q0.9375 0.53125 2.015625 0.53125q1.15625 0 2.171875 -0.578125q1.03125 -0.578125 1.40625 -1.515625l1.828125 0.515625q-0.40625 0.90625 -1.21875 1.625q-0.796875 0.71875 -1.890625 1.125q-1.09375 0.40625 -2.359375 0.40625zm-4.21875 -7.25l8.53125 0q-0.09375 -1.21875 -0.703125 -2.15625q-0.59375 -0.9375 -1.53125 -1.453125q-0.921875 -0.53125 -2.0625 -0.53125q-1.09375 0 -2.03125 0.53125q-0.9375 0.515625 -1.53125 1.453125q-0.578125 0.9375 -0.671875 2.15625zm31.74646 7.015625l-2.109375 0l0 -7.015625q0 -1.953125 -0.640625 -2.890625q-0.640625 -0.9375 -1.890625 -0.9375q-1.265625 0 -2.296875 0.921875q-1.03125 0.921875 -1.46875 2.390625l0 7.53125l-2.109375 0l0 -7.015625q0 -1.984375 -0.625 -2.90625q-0.625 -0.921875 -1.875 -0.921875q-1.234375 0 -2.28125 0.90625q-1.046875 0.890625 -1.484375 2.375l0 7.5625l-2.109375 0l0 -12.531242l1.921875 0l0 2.6874924q0.765625 -1.390625 1.984375 -2.140625q1.234375 -0.7656174 2.765625 -0.7656174q1.5625 0 2.5 0.8593674q0.9375 0.84375 1.15625 2.1875q0.828125 -1.484375 2.03125 -2.265625q1.203125 -0.7812424 2.734375 -0.7812424q1.078125 0 1.8125 0.40624237q0.734375 0.390625 1.15625 1.109375q0.4375 0.703125 0.625 1.671875q0.203125 0.953125 0.203125 2.078125l0 7.484375zm15.841675 -0.625q-0.265625 0.125 -0.71875 0.3125q-0.453125 0.1875 -1.0625 0.328125q-0.59375 0.15625 -1.265625 0.15625q-0.765625 0 -1.421875 -0.28125q-0.640625 -0.28125 -1.03125 -0.859375q-0.390625 -0.59375 -0.390625 -1.484375l0 -8.421875l-1.703125 0l0 -1.6562424l1.703125 0l0 -4.171875l2.125 0l0 4.171875l2.796875 0l0 1.6562424l-2.796875 0l0 7.78125q0.046875 0.671875 0.453125 1.0q0.40625 0.3125 0.953125 0.3125q0.625 0 1.15625 -0.203125q0.53125 -0.21875 0.703125 -0.3125l0.5 1.671875zm7.2643433 0.859375q-1.40625 0 -2.5625 -0.515625q-1.15625 -0.515625 -2.0 -1.40625q-0.828125 -0.90625 -1.296875 -2.078125q-0.453125 -1.171875 -0.453125 -2.46875q0 -1.328125 0.453125 -2.5q0.46875 -1.171875 1.296875 -2.078125q0.84375 -0.90625 2.0 -1.421875q1.171875 -0.5156174 2.59375 -0.5156174q1.390625 0 2.53125 0.5156174q1.15625 0.515625 2.0 1.421875q0.859375 0.90625 1.3125 2.078125q0.46875 1.171875 0.46875 2.5q0 1.296875 -0.46875 2.46875q-0.453125 1.171875 -1.296875 2.078125q-0.828125 0.890625 -2.0 1.40625q-1.15625 0.515625 -2.578125 0.515625zm-4.140625 -6.453125q0 1.296875 0.5625 2.359375q0.5625 1.046875 1.5 1.671875q0.9375 0.609375 2.078125 0.609375q1.15625 0 2.09375 -0.625q0.953125 -0.625 1.515625 -1.6875q0.578125 -1.078125 0.578125 -2.375q0 -1.296875 -0.578125 -2.34375q-0.5625 -1.0625 -1.515625 -1.6875q-0.9375 -0.625 -2.09375 -0.625q-1.140625 0 -2.078125 0.640625q-0.9375 0.640625 -1.5 1.703125q-0.5625 1.046875 -0.5625 2.359375zm24.666687 6.453125q-1.421875 0 -2.59375 -0.515625q-1.15625 -0.515625 -2.015625 -1.421875q-0.84375 -0.90625 -1.3125 -2.078125q-0.46875 -1.1875 -0.46875 -2.5q0 -1.78125 0.796875 -3.234375q0.796875 -1.46875 2.234375 -2.34375q1.4375 -0.8906174 3.328125 -0.8906174q1.859375 0 3.234375 0.8281174q1.375 0.828125 2.046875 2.21875l-2.0625 0.65625q-0.484375 -0.890625 -1.34375 -1.375q-0.859375 -0.5 -1.921875 -0.5q-1.140625 0 -2.09375 0.609375q-0.953125 0.59375 -1.5 1.640625q-0.546875 1.046875 -0.546875 2.390625q0 1.3125 0.5625 2.390625q0.5625 1.0625 1.5 1.6875q0.953125 0.625 2.109375 0.625q0.734375 0 1.421875 -0.265625q0.6875 -0.265625 1.203125 -0.703125q0.515625 -0.453125 0.703125 -0.984375l2.0625 0.625q-0.375 0.921875 -1.15625 1.625q-0.78125 0.703125 -1.859375 1.109375q-1.0625 0.40625 -2.328125 0.40625zm14.374084 -10.921875q-1.578125 0.03125 -2.796875 0.8125q-1.21875 0.78125 -1.71875 2.140625l0 7.734375l-2.109375 0l0 -12.531242l1.96875 0l0 2.9062424q0.640625 -1.296875 1.703125 -2.09375q1.078125 -0.8124924 2.25 -0.9062424q0.25 0 0.40625 0q0.171875 0 0.296875 0.03125l0 1.9062424zm7.345886 10.921875q-1.421875 0 -2.59375 -0.515625q-1.15625 -0.515625 -2.015625 -1.40625q-0.84375 -0.90625 -1.3125 -2.078125q-0.46875 -1.171875 -0.46875 -2.5q0 -1.78125 0.8125 -3.234375q0.828125 -1.46875 2.28125 -2.359375q1.453125 -0.8906174 3.3125 -0.8906174q1.90625 0 3.296875 0.9062424q1.40625 0.90625 2.1875 2.359375q0.78125 1.4375 0.78125 3.125q0 0.234375 -0.015625 0.46875q0 0.234375 -0.03125 0.34375l-10.390625 0q0.09375 1.234375 0.6875 2.1875q0.59375 0.9375 1.515625 1.484375q0.9375 0.53125 2.015625 0.53125q1.15625 0 2.171875 -0.578125q1.03125 -0.578125 1.40625 -1.515625l1.828125 0.515625q-0.40625 0.90625 -1.21875 1.625q-0.796875 0.71875 -1.890625 1.125q-1.09375 0.40625 -2.359375 0.40625zm-4.21875 -7.25l8.53125 0q-0.09375 -1.21875 -0.703125 -2.15625q-0.59375 -0.9375 -1.53125 -1.453125q-0.921875 -0.53125 -2.0625 -0.53125q-1.09375 0 -2.03125 0.53125q-0.9375 0.515625 -1.53125 1.453125q-0.578125 0.9375 -0.671875 2.15625zm11.87146 3.390625q0 -1.203125 0.6875 -2.078125q0.6875 -0.875 1.875 -1.34375q1.203125 -0.484375 2.796875 -0.484375q0.828125 0 1.765625 0.140625q0.9375 0.125 1.65625 0.375l0 -0.90625q0 -1.4375 -0.859375 -2.265625q-0.859375 -0.828125 -2.453125 -0.828125q-1.03125 0 -1.984375 0.375q-0.9375 0.375 -2.0 1.0625l-0.765625 -1.484375q1.21875 -0.84375 2.4375 -1.265625q1.234375 -0.42186737 2.5625 -0.42186737q2.390625 0 3.78125 1.3437424q1.390625 1.328125 1.390625 3.703125l0 5.296875q0 0.390625 0.15625 0.578125q0.15625 0.171875 0.515625 0.203125l0 1.625q-0.3125 0.046875 -0.546875 0.0625q-0.21875 0.03125 -0.359375 0.03125q-0.75 0 -1.125 -0.40625q-0.359375 -0.40625 -0.40625 -0.859375l-0.046875 -0.796875q-0.828125 1.0625 -2.140625 1.640625q-1.3125 0.5625 -2.609375 0.5625q-1.25 0 -2.234375 -0.515625q-0.984375 -0.515625 -1.546875 -1.390625q-0.546875 -0.875 -0.546875 -1.953125zm8.15625 0.890625q0.296875 -0.34375 0.453125 -0.6875q0.171875 -0.34375 0.171875 -0.59375l0 -1.546875q-0.734375 -0.296875 -1.5625 -0.453125q-0.8125 -0.15625 -1.59375 -0.15625q-1.609375 0 -2.609375 0.640625q-1.0 0.640625 -1.0 1.734375q0 0.609375 0.328125 1.171875q0.328125 0.5625 0.953125 0.921875q0.640625 0.359375 1.578125 0.359375q0.984375 0 1.875 -0.390625q0.890625 -0.40625 1.40625 -1.0zm12.512451 2.109375q-0.265625 0.125 -0.71875 0.3125q-0.453125 0.1875 -1.0625 0.328125q-0.59375 0.15625 -1.265625 0.15625q-0.765625 0 -1.421875 -0.28125q-0.640625 -0.28125 -1.03125 -0.859375q-0.390625 -0.59375 -0.390625 -1.484375l0 -8.421875l-1.703125 0l0 -1.6562424l1.703125 0l0 -4.171875l2.125 0l0 4.171875l2.796875 0l0 1.6562424l-2.796875 0l0 7.78125q0.046875 0.671875 0.453125 1.0q0.40625 0.3125 0.953125 0.3125q0.625 0 1.15625 -0.203125q0.53125 -0.21875 0.703125 -0.3125l0.5 1.671875zm7.3424683 0.859375q-1.421875 0 -2.59375 -0.515625q-1.15625 -0.515625 -2.015625 -1.40625q-0.84375 -0.90625 -1.3125 -2.078125q-0.46875 -1.171875 -0.46875 -2.5q0 -1.78125 0.8125 -3.234375q0.828125 -1.46875 2.28125 -2.359375q1.453125 -0.8906174 3.3125 -0.8906174q1.90625 0 3.296875 0.9062424q1.40625 0.90625 2.1875 2.359375q0.78125 1.4375 0.78125 3.125q0 0.234375 -0.015625 0.46875q0 0.234375 -0.03125 0.34375l-10.390625 0q0.09375 1.234375 0.6875 2.1875q0.59375 0.9375 1.515625 1.484375q0.9375 0.53125 2.015625 0.53125q1.15625 0 2.171875 -0.578125q1.03125 -0.578125 1.40625 -1.515625l1.828125 0.515625q-0.40625 0.90625 -1.21875 1.625q-0.796875 0.71875 -1.890625 1.125q-1.09375 0.40625 -2.359375 0.40625zm-4.21875 -7.25l8.53125 0q-0.09375 -1.21875 -0.703125 -2.15625q-0.59375 -0.9375 -1.53125 -1.453125q-0.921875 -0.53125 -2.0625 -0.53125q-1.09375 0 -2.03125 0.53125q-0.9375 0.515625 -1.53125 1.453125q-0.578125 0.9375 -0.671875 2.15625zm25.41217 6.390625q-0.265625 0.125 -0.71875 0.3125q-0.453125 0.1875 -1.0625 0.328125q-0.59375 0.15625 -1.265625 0.15625q-0.765625 0 -1.421875 -0.28125q-0.640625 -0.28125 -1.03125 -0.859375q-0.390625 -0.59375 -0.390625 -1.484375l0 -8.421875l-1.703125 0l0 -1.6562424l1.703125 0l0 -4.171875l2.125 0l0 4.171875l2.796875 0l0 1.6562424l-2.796875 0l0 7.78125q0.046875 0.671875 0.453125 1.0q0.40625 0.3125 0.953125 0.3125q0.625 0 1.15625 -0.203125q0.53125 -0.21875 0.703125 -0.3125l0.5 1.671875zm12.838623 0.625l-2.109375 0l0 -7.015625q0 -1.90625 -0.6875 -2.859375q-0.6875 -0.96875 -1.953125 -0.96875q-0.8125 0 -1.640625 0.4375q-0.828125 0.421875 -1.453125 1.15625q-0.625 0.734375 -0.921875 1.6875l0 7.5625l-2.109375 0l0 -17.515617l2.109375 0l0 7.6718674q0.75 -1.34375 2.03125 -2.125q1.28125 -0.7812424 2.765625 -0.7812424q1.140625 0 1.890625 0.40624237q0.75 0.390625 1.203125 1.109375q0.46875 0.71875 0.671875 1.671875q0.203125 0.953125 0.203125 2.078125l0 7.484375zm8.831848 0.234375q-1.421875 0 -2.59375 -0.515625q-1.15625 -0.515625 -2.015625 -1.40625q-0.84375 -0.90625 -1.3125 -2.078125q-0.46875 -1.171875 -0.46875 -2.5q0 -1.78125 0.8125 -3.234375q0.828125 -1.46875 2.28125 -2.359375q1.453125 -0.8906174 3.3125 -0.8906174q1.90625 0 3.296875 0.9062424q1.40625 0.90625 2.1875 2.359375q0.78125 1.4375 0.78125 3.125q0 0.234375 -0.015625 0.46875q0 0.234375 -0.03125 0.34375l-10.390625 0q0.09375 1.234375 0.6875 2.1875q0.59375 0.9375 1.515625 1.484375q0.9375 0.53125 2.015625 0.53125q1.15625 0 2.171875 -0.578125q1.03125 -0.578125 1.40625 -1.515625l1.828125 0.515625q-0.40625 0.90625 -1.21875 1.625q-0.796875 0.71875 -1.890625 1.125q-1.09375 0.40625 -2.359375 0.40625zm-4.21875 -7.25l8.53125 0q-0.09375 -1.21875 -0.703125 -2.15625q-0.59375 -0.9375 -1.53125 -1.453125q-0.921875 -0.53125 -2.0625 -0.53125q-1.09375 0 -2.03125 0.53125q-0.9375 0.515625 -1.53125 1.453125q-0.578125 0.9375 -0.671875 2.15625zm25.677795 7.25q-1.546875 0 -2.75 -0.765625q-1.1875 -0.765625 -1.890625 -1.9375l0 7.578125l-2.109375 0l0 -17.640617l1.875 0l0 2.3593674q0.734375 -1.15625 1.9375 -1.859375q1.203125 -0.7187424 2.625 -0.7187424q1.296875 0 2.375 0.5312424q1.078125 0.53125 1.859375 1.453125q0.796875 0.90625 1.234375 2.078125q0.453125 1.15625 0.453125 2.421875q0 1.78125 -0.71875 3.265625q-0.703125 1.484375 -1.96875 2.359375q-1.265625 0.875 -2.921875 0.875zm-0.65625 -1.8125q0.9375 0 1.6875 -0.390625q0.765625 -0.40625 1.296875 -1.0625q0.546875 -0.671875 0.828125 -1.5q0.296875 -0.84375 0.296875 -1.734375q0 -0.9375 -0.328125 -1.765625q-0.328125 -0.84375 -0.921875 -1.484375q-0.578125 -0.65625 -1.359375 -1.03125q-0.78125 -0.375 -1.6875 -0.375q-0.578125 0 -1.1875 0.21875q-0.609375 0.21875 -1.171875 0.609375q-0.546875 0.390625 -0.9375 0.90625q-0.375 0.5 -0.5 1.078125l0 3.578125q0.359375 0.8125 0.953125 1.484375q0.609375 0.671875 1.390625 1.078125q0.796875 0.390625 1.640625 0.390625zm14.40509 1.8125q-1.421875 0 -2.59375 -0.515625q-1.15625 -0.515625 -2.015625 -1.40625q-0.84375 -0.90625 -1.3125 -2.078125q-0.46875 -1.171875 -0.46875 -2.5q0 -1.78125 0.8125 -3.234375q0.828125 -1.46875 2.28125 -2.359375q1.453125 -0.8906174 3.3125 -0.8906174q1.90625 0 3.296875 0.9062424q1.40625 0.90625 2.1875 2.359375q0.78125 1.4375 0.78125 3.125q0 0.234375 -0.015625 0.46875q0 0.234375 -0.03125 0.34375l-10.390625 0q0.09375 1.234375 0.6875 2.1875q0.59375 0.9375 1.515625 1.484375q0.9375 0.53125 2.015625 0.53125q1.15625 0 2.171875 -0.578125q1.03125 -0.578125 1.40625 -1.515625l1.828125 0.515625q-0.40625 0.90625 -1.21875 1.625q-0.796875 0.71875 -1.890625 1.125q-1.09375 0.40625 -2.359375 0.40625zm-4.21875 -7.25l8.53125 0q-0.09375 -1.21875 -0.703125 -2.15625q-0.59375 -0.9375 -1.53125 -1.453125q-0.921875 -0.53125 -2.0625 -0.53125q-1.09375 0 -2.03125 0.53125q-0.9375 0.515625 -1.53125 1.453125q-0.578125 0.9375 -0.671875 2.15625zm19.480835 -3.671875q-1.578125 0.03125 -2.796875 0.8125q-1.21875 0.78125 -1.71875 2.140625l0 7.734375l-2.109375 0l0 -12.531242l1.96875 0l0 2.9062424q0.640625 -1.296875 1.703125 -2.09375q1.078125 -0.8124924 2.25 -0.9062424q0.25 0 0.40625 0q0.171875 0 0.296875 0.03125l0 1.9062424zm7.345825 10.921875q-1.421875 0 -2.59375 -0.515625q-1.15625 -0.515625 -2.015625 -1.421875q-0.84375 -0.90625 -1.3125 -2.078125q-0.46875 -1.1875 -0.46875 -2.5q0 -1.78125 0.796875 -3.234375q0.796875 -1.46875 2.234375 -2.34375q1.4375 -0.8906174 3.328125 -0.8906174q1.859375 0 3.234375 0.8281174q1.375 0.828125 2.046875 2.21875l-2.0625 0.65625q-0.484375 -0.890625 -1.34375 -1.375q-0.859375 -0.5 -1.921875 -0.5q-1.140625 0 -2.09375 0.609375q-0.953125 0.59375 -1.5 1.640625q-0.546875 1.046875 -0.546875 2.390625q0 1.3125 0.5625 2.390625q0.5625 1.0625 1.5 1.6875q0.953125 0.625 2.109375 0.625q0.734375 0 1.421875 -0.265625q0.6875 -0.265625 1.203125 -0.703125q0.515625 -0.453125 0.703125 -0.984375l2.0625 0.625q-0.375 0.921875 -1.15625 1.625q-0.78125 0.703125 -1.859375 1.109375q-1.0625 0.40625 -2.328125 0.40625zm13.175964 0q-1.421875 0 -2.59375 -0.515625q-1.15625 -0.515625 -2.015625 -1.40625q-0.84375 -0.90625 -1.3125 -2.078125q-0.46875 -1.171875 -0.46875 -2.5q0 -1.78125 0.8125 -3.234375q0.828125 -1.46875 2.28125 -2.359375q1.453125 -0.8906174 3.3125 -0.8906174q1.90625 0 3.296875 0.9062424q1.40625 0.90625 2.1875 2.359375q0.78125 1.4375 0.78125 3.125q0 0.234375 -0.015625 0.46875q0 0.234375 -0.03125 0.34375l-10.390625 0q0.09375 1.234375 0.6875 2.1875q0.59375 0.9375 1.515625 1.484375q0.9375 0.53125 2.015625 0.53125q1.15625 0 2.171875 -0.578125q1.03125 -0.578125 1.40625 -1.515625l1.828125 0.515625q-0.40625 0.90625 -1.21875 1.625q-0.796875 0.71875 -1.890625 1.125q-1.09375 0.40625 -2.359375 0.40625zm-4.21875 -7.25l8.53125 0q-0.09375 -1.21875 -0.703125 -2.15625q-0.59375 -0.9375 -1.53125 -1.453125q-0.921875 -0.53125 -2.0625 -0.53125q-1.09375 0 -2.03125 0.53125q-0.9375 0.515625 -1.53125 1.453125q-0.578125 0.9375 -0.671875 2.15625zm19.605835 7.25q-1.546875 0 -2.75 -0.765625q-1.1875 -0.765625 -1.890625 -1.9375l0 7.578125l-2.109375 0l0 -17.640617l1.875 0l0 2.3593674q0.734375 -1.15625 1.9375 -1.859375q1.203125 -0.7187424 2.625 -0.7187424q1.296875 0 2.375 0.5312424q1.078125 0.53125 1.859375 1.453125q0.796875 0.90625 1.234375 2.078125q0.453125 1.15625 0.453125 2.421875q0 1.78125 -0.71875 3.265625q-0.703125 1.484375 -1.96875 2.359375q-1.265625 0.875 -2.921875 0.875zm-0.65625 -1.8125q0.9375 0 1.6875 -0.390625q0.765625 -0.40625 1.296875 -1.0625q0.546875 -0.671875 0.828125 -1.5q0.296875 -0.84375 0.296875 -1.734375q0 -0.9375 -0.328125 -1.765625q-0.328125 -0.84375 -0.921875 -1.484375q-0.578125 -0.65625 -1.359375 -1.03125q-0.78125 -0.375 -1.6875 -0.375q-0.578125 0 -1.1875 0.21875q-0.609375 0.21875 -1.171875 0.609375q-0.546875 0.390625 -0.9375 0.90625q-0.375 0.5 -0.5 1.078125l0 3.578125q0.359375 0.8125 0.953125 1.484375q0.609375 0.671875 1.390625 1.078125q0.796875 0.390625 1.640625 0.390625zm15.150574 0.953125q-0.265625 0.125 -0.71875 0.3125q-0.453125 0.1875 -1.0625 0.328125q-0.59375 0.15625 -1.265625 0.15625q-0.765625 0 -1.421875 -0.28125q-0.640625 -0.28125 -1.03125 -0.859375q-0.390625 -0.59375 -0.390625 -1.484375l0 -8.421875l-1.703125 0l0 -1.6562424l1.703125 0l0 -4.171875l2.125 0l0 4.171875l2.796875 0l0 1.6562424l-2.796875 0l0 7.78125q0.046875 0.671875 0.453125 1.0q0.40625 0.3125 0.953125 0.3125q0.625 0 1.15625 -0.203125q0.53125 -0.21875 0.703125 -0.3125l0.5 1.671875zm1.963623 0.625l0 -12.531242l2.109375 0l0 12.531242l-2.109375 0zm0 -14.874992l0 -2.640625l2.109375 0l0 2.640625l-2.109375 0zm10.98877 15.109367q-1.40625 0 -2.5625 -0.515625q-1.15625 -0.515625 -2.0 -1.40625q-0.828125 -0.90625 -1.296875 -2.078125q-0.453125 -1.171875 -0.453125 -2.46875q0 -1.328125 0.453125 -2.5q0.46875 -1.171875 1.296875 -2.078125q0.84375 -0.90625 2.0 -1.421875q1.171875 -0.5156174 2.59375 -0.5156174q1.390625 0 2.53125 0.5156174q1.15625 0.515625 2.0 1.421875q0.859375 0.90625 1.3125 2.078125q0.46875 1.171875 0.46875 2.5q0 1.296875 -0.46875 2.46875q-0.453125 1.171875 -1.296875 2.078125q-0.828125 0.890625 -2.0 1.40625q-1.15625 0.515625 -2.578125 0.515625zm-4.140625 -6.453125q0 1.296875 0.5625 2.359375q0.5625 1.046875 1.5 1.671875q0.9375 0.609375 2.078125 0.609375q1.15625 0 2.09375 -0.625q0.953125 -0.625 1.515625 -1.6875q0.578125 -1.078125 0.578125 -2.375q0 -1.296875 -0.578125 -2.34375q-0.5625 -1.0625 -1.515625 -1.6875q-0.9375 -0.625 -2.09375 -0.625q-1.140625 0 -2.078125 0.640625q-0.9375 0.640625 -1.5 1.703125q-0.5625 1.046875 -0.5625 2.359375zm23.92279 6.21875l-2.109375 0l0 -7.015625q0 -1.984375 -0.625 -2.90625q-0.609375 -0.921875 -1.859375 -0.921875q-0.859375 0 -1.71875 0.4375q-0.84375 0.421875 -1.5 1.15625q-0.65625 0.734375 -0.953125 1.6875l0 7.5625l-2.109375 0l0 -12.531242l1.921875 0l0 2.6874924q0.5 -0.890625 1.296875 -1.53125q0.796875 -0.65625 1.796875 -1.015625q1.015625 -0.35936737 2.109375 -0.35936737q1.078125 0 1.8125 0.40624237q0.734375 0.390625 1.15625 1.109375q0.421875 0.703125 0.59375 1.671875q0.1875 0.953125 0.1875 2.078125l0 7.484375z" fill-rule="nonzero"/><path fill="#26a69a" d="m546.4657 176.53333q-0.265625 0.125 -0.71875 0.3125q-0.453125 0.1875 -1.0625 0.328125q-0.59375 0.15625 -1.265625 0.15625q-0.765625 0 -1.421875 -0.28125q-0.640625 -0.28125 -1.03125 -0.859375q-0.390625 -0.59375 -0.390625 -1.484375l0 -8.421875l-1.703125 0l0 -1.65625l1.703125 0l0 -4.171875l2.125 0l0 4.171875l2.796875 0l0 1.65625l-2.796875 0l0 7.78125q0.046875 0.671875 0.453125 1.0q0.40625 0.3125 0.953125 0.3125q0.625 0 1.15625 -0.203125q0.53125 -0.21875 0.703125 -0.3125l0.5 1.671875zm12.838623 0.625l-2.109375 0l0 -7.015625q0 -1.90625 -0.6875 -2.859375q-0.6875 -0.96875 -1.953125 -0.96875q-0.8125 0 -1.640625 0.4375q-0.828125 0.421875 -1.453125 1.15625q-0.625 0.734375 -0.921875 1.6875l0 7.5625l-2.109375 0l0 -17.515625l2.109375 0l0 7.671875q0.75 -1.34375 2.03125 -2.125q1.28125 -0.78125 2.765625 -0.78125q1.140625 0 1.890625 0.40625q0.75 0.390625 1.203125 1.109375q0.46875 0.71875 0.671875 1.671875q0.203125 0.953125 0.203125 2.078125l0 7.484375zm2.3005981 -3.625q0 -1.203125 0.6875 -2.078125q0.6875 -0.875 1.875 -1.34375q1.203125 -0.484375 2.796875 -0.484375q0.828125 0 1.765625 0.140625q0.9375 0.125 1.65625 0.375l0 -0.90625q0 -1.4375 -0.859375 -2.265625q-0.859375 -0.828125 -2.453125 -0.828125q-1.03125 0 -1.984375 0.375q-0.9375 0.375 -2.0 1.0625l-0.765625 -1.484375q1.21875 -0.84375 2.4375 -1.265625q1.234375 -0.421875 2.5625 -0.421875q2.390625 0 3.78125 1.34375q1.390625 1.328125 1.390625 3.703125l0 5.296875q0 0.390625 0.15625 0.578125q0.15625 0.171875 0.515625 0.203125l0 1.625q-0.3125 0.046875 -0.546875 0.0625q-0.21875 0.03125 -0.359375 0.03125q-0.75 0 -1.125 -0.40625q-0.359375 -0.40625 -0.40625 -0.859375l-0.046875 -0.796875q-0.828125 1.0625 -2.140625 1.640625q-1.3125 0.5625 -2.609375 0.5625q-1.25 0 -2.234375 -0.515625q-0.984375 -0.515625 -1.546875 -1.390625q-0.546875 -0.875 -0.546875 -1.953125zm8.15625 0.890625q0.296875 -0.34375 0.453125 -0.6875q0.171875 -0.34375 0.171875 -0.59375l0 -1.546875q-0.734375 -0.296875 -1.5625 -0.453125q-0.8125 -0.15625 -1.59375 -0.15625q-1.609375 0 -2.609375 0.640625q-1.0 0.640625 -1.0 1.734375q0 0.609375 0.328125 1.171875q0.328125 0.5625 0.953125 0.921875q0.640625 0.359375 1.578125 0.359375q0.984375 0 1.875 -0.390625q0.890625 -0.40625 1.40625 -1.0zm12.512451 2.109375q-0.265625 0.125 -0.71875 0.3125q-0.453125 0.1875 -1.0625 0.328125q-0.59375 0.15625 -1.265625 0.15625q-0.765625 0 -1.421875 -0.28125q-0.640625 -0.28125 -1.03125 -0.859375q-0.390625 -0.59375 -0.390625 -1.484375l0 -8.421875l-1.703125 0l0 -1.65625l1.703125 0l0 -4.171875l2.125 0l0 4.171875l2.796875 0l0 1.65625l-2.796875 0l0 7.78125q0.046875 0.671875 0.453125 1.0q0.40625 0.3125 0.953125 0.3125q0.625 0 1.15625 -0.203125q0.53125 -0.21875 0.703125 -0.3125l0.5 1.671875zm8.0355835 0.625l0 -12.53125l2.109375 0l0 12.53125l-2.109375 0zm0 -14.875l0 -2.640625l2.109375 0l0 2.640625l-2.109375 0zm12.004395 14.25q-0.265625 0.125 -0.71875 0.3125q-0.453125 0.1875 -1.0625 0.328125q-0.59375 0.15625 -1.265625 0.15625q-0.765625 0 -1.421875 -0.28125q-0.640625 -0.28125 -1.03125 -0.859375q-0.390625 -0.59375 -0.390625 -1.484375l0 -8.421875l-1.703125 0l0 -1.65625l1.703125 0l0 -4.171875l2.125 0l0 4.171875l2.796875 0l0 1.65625l-2.796875 0l0 7.78125q0.046875 0.671875 0.453125 1.0q0.40625 0.3125 0.953125 0.3125q0.625 0 1.15625 -0.203125q0.53125 -0.21875 0.703125 -0.3125l0.5 1.671875zm8.0824585 -16.890625l2.109375 0l0 14.28125q0 1.03125 0.28125 1.265625q0.296875 0.234375 0.703125 0.234375q0.515625 0 0.96875 -0.09375q0.453125 -0.109375 0.765625 -0.234375l0.328125 1.71875q-0.515625 0.21875 -1.25 0.359375q-0.71875 0.15625 -1.265625 0.15625q-1.21875 0 -1.9375 -0.6875q-0.703125 -0.703125 -0.703125 -1.953125l0 -15.046875zm12.285828 17.75q-1.40625 0 -2.5625 -0.515625q-1.15625 -0.515625 -2.0 -1.40625q-0.828125 -0.90625 -1.296875 -2.078125q-0.453125 -1.171875 -0.453125 -2.46875q0 -1.328125 0.453125 -2.5q0.46875 -1.171875 1.296875 -2.078125q0.84375 -0.90625 2.0 -1.421875q1.171875 -0.515625 2.59375 -0.515625q1.390625 0 2.53125 0.515625q1.15625 0.515625 2.0 1.421875q0.859375 0.90625 1.3125 2.078125q0.46875 1.171875 0.46875 2.5q0 1.296875 -0.46875 2.46875q-0.453125 1.171875 -1.296875 2.078125q-0.828125 0.890625 -2.0 1.40625q-1.15625 0.515625 -2.578125 0.515625zm-4.140625 -6.453125q0 1.296875 0.5625 2.359375q0.5625 1.046875 1.5 1.671875q0.9375 0.609375 2.078125 0.609375q1.15625 0 2.09375 -0.625q0.953125 -0.625 1.515625 -1.6875q0.578125 -1.078125 0.578125 -2.375q0 -1.296875 -0.578125 -2.34375q-0.5625 -1.0625 -1.515625 -1.6875q-0.9375 -0.625 -2.09375 -0.625q-1.140625 0 -2.078125 0.640625q-0.9375 0.640625 -1.5 1.703125q-0.5625 1.046875 -0.5625 2.359375zm12.063477 2.59375q0 -1.203125 0.6875 -2.078125q0.6875 -0.875 1.875 -1.34375q1.203125 -0.484375 2.796875 -0.484375q0.828125 0 1.765625 0.140625q0.9375 0.125 1.65625 0.375l0 -0.90625q0 -1.4375 -0.859375 -2.265625q-0.859375 -0.828125 -2.453125 -0.828125q-1.03125 0 -1.984375 0.375q-0.9375 0.375 -2.0 1.0625l-0.765625 -1.484375q1.21875 -0.84375 2.4375 -1.265625q1.234375 -0.421875 2.5625 -0.421875q2.390625 0 3.78125 1.34375q1.390625 1.328125 1.390625 3.703125l0 5.296875q0 0.390625 0.15625 0.578125q0.15625 0.171875 0.515625 0.203125l0 1.625q-0.3125 0.046875 -0.546875 0.0625q-0.21875 0.03125 -0.359375 0.03125q-0.75 0 -1.125 -0.40625q-0.359375 -0.40625 -0.40625 -0.859375l-0.046875 -0.796875q-0.828125 1.0625 -2.140625 1.640625q-1.3125 0.5625 -2.609375 0.5625q-1.25 0 -2.234375 -0.515625q-0.984375 -0.515625 -1.546875 -1.390625q-0.546875 -0.875 -0.546875 -1.953125zm8.15625 0.890625q0.296875 -0.34375 0.453125 -0.6875q0.171875 -0.34375 0.171875 -0.59375l0 -1.546875q-0.734375 -0.296875 -1.5625 -0.453125q-0.8125 -0.15625 -1.59375 -0.15625q-1.609375 0 -2.609375 0.640625q-1.0 0.640625 -1.0 1.734375q0 0.609375 0.328125 1.171875q0.328125 0.5625 0.953125 0.921875q0.640625 0.359375 1.578125 0.359375q0.984375 0 1.875 -0.390625q0.890625 -0.40625 1.40625 -1.0zm5.3115845 -3.5q0 -1.78125 0.734375 -3.25q0.734375 -1.484375 2.015625 -2.375q1.28125 -0.890625 2.9375 -0.890625q1.515625 0 2.703125 0.796875q1.203125 0.796875 1.875 1.921875l0 -7.484375l2.109375 0l0 15.109375q0 0.390625 0.15625 0.578125q0.15625 0.171875 0.515625 0.203125l0 1.625q-0.59375 0.09375 -0.921875 0.09375q-0.625 0 -1.09375 -0.421875q-0.46875 -0.4375 -0.46875 -0.96875l0 -1.0625q-0.75 1.203125 -2.0 1.90625q-1.25 0.6875 -2.59375 0.6875q-1.296875 0 -2.390625 -0.515625q-1.078125 -0.515625 -1.890625 -1.421875q-0.796875 -0.90625 -1.25 -2.0625q-0.4375 -1.171875 -0.4375 -2.46875zm10.265625 1.84375l0 -3.59375q-0.28125 -0.828125 -0.9375 -1.484375q-0.640625 -0.65625 -1.453125 -1.046875q-0.796875 -0.40625 -1.59375 -0.40625q-0.9375 0 -1.6875 0.40625q-0.75 0.390625 -1.296875 1.046875q-0.546875 0.65625 -0.828125 1.5q-0.28125 0.84375 -0.28125 1.75q0 0.9375 0.3125 1.78125q0.328125 0.84375 0.90625 1.5q0.59375 0.640625 1.375 1.0q0.78125 0.359375 1.703125 0.359375q0.5625 0 1.171875 -0.21875q0.625 -0.21875 1.171875 -0.59375q0.546875 -0.390625 0.9375 -0.90625q0.390625 -0.515625 0.5 -1.09375zm9.939697 4.625q-1.5625 0 -2.9375 -0.515625q-1.359375 -0.515625 -2.34375 -1.546875l0.8125 -1.484375q1.078125 1.015625 2.15625 1.453125q1.09375 0.421875 2.21875 0.421875q1.296875 0 2.109375 -0.484375q0.8125 -0.5 0.8125 -1.46875q0 -0.6875 -0.421875 -1.015625q-0.421875 -0.34375 -1.1875 -0.5625q-0.765625 -0.234375 -1.8125 -0.53125q-1.296875 -0.375 -2.1875 -0.8125q-0.890625 -0.4375 -1.34375 -1.078125q-0.453125 -0.65625 -0.453125 -1.640625q0 -1.1875 0.609375 -2.015625q0.625 -0.828125 1.71875 -1.265625q1.09375 -0.4375 2.484375 -0.4375q1.390625 0 2.515625 0.4375q1.140625 0.4375 1.953125 1.265625l-0.953125 1.46875q-0.75 -0.765625 -1.640625 -1.140625q-0.890625 -0.375 -1.984375 -0.375q-0.65625 0 -1.28125 0.15625q-0.625 0.15625 -1.03125 0.5625q-0.40625 0.390625 -0.40625 1.109375q0 0.609375 0.328125 0.953125q0.328125 0.34375 0.953125 0.59375q0.640625 0.234375 1.546875 0.515625q1.421875 0.40625 2.46875 0.828125q1.046875 0.40625 1.609375 1.046875q0.578125 0.640625 0.578125 1.796875q0 1.78125 -1.34375 2.78125q-1.34375 0.984375 -3.546875 0.984375zm14.158936 -0.234375l0 -10.875l-1.703125 0l0 -1.65625l1.703125 0l0 -0.265625q0 -1.53125 0.46875 -2.640625q0.46875 -1.125 1.328125 -1.71875q0.875 -0.609375 2.046875 -0.609375q0.734375 0 1.453125 0.203125q0.734375 0.203125 1.296875 0.578125l-0.515625 1.546875q-0.34375 -0.234375 -0.84375 -0.375q-0.484375 -0.140625 -0.96875 -0.140625q-1.03125 0 -1.59375 0.796875q-0.5625 0.796875 -0.5625 2.296875l0 0.328125l3.34375 0l0 1.65625l-3.34375 0l0 10.875l-2.109375 0zm6.5757446 -3.625q0 -1.203125 0.6875 -2.078125q0.6875 -0.875 1.875 -1.34375q1.203125 -0.484375 2.796875 -0.484375q0.828125 0 1.765625 0.140625q0.9375 0.125 1.65625 0.375l0 -0.90625q0 -1.4375 -0.859375 -2.265625q-0.859375 -0.828125 -2.453125 -0.828125q-1.03125 0 -1.984375 0.375q-0.9375 0.375 -2.0 1.0625l-0.765625 -1.484375q1.21875 -0.84375 2.4375 -1.265625q1.234375 -0.421875 2.5625 -0.421875q2.390625 0 3.78125 1.34375q1.390625 1.328125 1.390625 3.703125l0 5.296875q0 0.390625 0.15625 0.578125q0.15625 0.171875 0.515625 0.203125l0 1.625q-0.3125 0.046875 -0.546875 0.0625q-0.21875 0.03125 -0.359375 0.03125q-0.75 0 -1.125 -0.40625q-0.359375 -0.40625 -0.40625 -0.859375l-0.046875 -0.796875q-0.828125 1.0625 -2.140625 1.640625q-1.3125 0.5625 -2.609375 0.5625q-1.25 0 -2.234375 -0.515625q-0.984375 -0.515625 -1.546875 -1.390625q-0.546875 -0.875 -0.546875 -1.953125zm8.15625 0.890625q0.296875 -0.34375 0.453125 -0.6875q0.171875 -0.34375 0.171875 -0.59375l0 -1.546875q-0.734375 -0.296875 -1.5625 -0.453125q-0.8125 -0.15625 -1.59375 -0.15625q-1.609375 0 -2.609375 0.640625q-1.0 0.640625 -1.0 1.734375q0 0.609375 0.328125 1.171875q0.328125 0.5625 0.953125 0.921875q0.640625 0.359375 1.578125 0.359375q0.984375 0 1.875 -0.390625q0.890625 -0.40625 1.40625 -1.0zm10.420959 2.96875q-1.5625 0 -2.9375 -0.515625q-1.359375 -0.515625 -2.34375 -1.546875l0.8125 -1.484375q1.078125 1.015625 2.15625 1.453125q1.09375 0.421875 2.21875 0.421875q1.296875 0 2.109375 -0.484375q0.8125 -0.5 0.8125 -1.46875q0 -0.6875 -0.421875 -1.015625q-0.421875 -0.34375 -1.1875 -0.5625q-0.765625 -0.234375 -1.8125 -0.53125q-1.296875 -0.375 -2.1875 -0.8125q-0.890625 -0.4375 -1.34375 -1.078125q-0.453125 -0.65625 -0.453125 -1.640625q0 -1.1875 0.609375 -2.015625q0.625 -0.828125 1.71875 -1.265625q1.09375 -0.4375 2.484375 -0.4375q1.390625 0 2.515625 0.4375q1.140625 0.4375 1.953125 1.265625l-0.953125 1.46875q-0.75 -0.765625 -1.640625 -1.140625q-0.890625 -0.375 -1.984375 -0.375q-0.65625 0 -1.28125 0.15625q-0.625 0.15625 -1.03125 0.5625q-0.40625 0.390625 -0.40625 1.109375q0 0.609375 0.328125 0.953125q0.328125 0.34375 0.953125 0.59375q0.640625 0.234375 1.546875 0.515625q1.421875 0.40625 2.46875 0.828125q1.046875 0.40625 1.609375 1.046875q0.578125 0.640625 0.578125 1.796875q0 1.78125 -1.34375 2.78125q-1.34375 0.984375 -3.546875 0.984375zm13.899475 -0.859375q-0.265625 0.125 -0.71875 0.3125q-0.453125 0.1875 -1.0625 0.328125q-0.59375 0.15625 -1.265625 0.15625q-0.765625 0 -1.421875 -0.28125q-0.640625 -0.28125 -1.03125 -0.859375q-0.390625 -0.59375 -0.390625 -1.484375l0 -8.421875l-1.703125 0l0 -1.65625l1.703125 0l0 -4.171875l2.125 0l0 4.171875l2.796875 0l0 1.65625l-2.796875 0l0 7.78125q0.046875 0.671875 0.453125 1.0q0.40625 0.3125 0.953125 0.3125q0.625 0 1.15625 -0.203125q0.53125 -0.21875 0.703125 -0.3125l0.5 1.671875zm7.3424683 0.859375q-1.421875 0 -2.59375 -0.515625q-1.15625 -0.515625 -2.015625 -1.40625q-0.84375 -0.90625 -1.3125 -2.078125q-0.46875 -1.171875 -0.46875 -2.5q0 -1.78125 0.8125 -3.234375q0.828125 -1.46875 2.28125 -2.359375q1.453125 -0.890625 3.3125 -0.890625q1.90625 0 3.296875 0.90625q1.40625 0.90625 2.1875 2.359375q0.78125 1.4375 0.78125 3.125q0 0.234375 -0.015625 0.46875q0 0.234375 -0.03125 0.34375l-10.390625 0q0.09375 1.234375 0.6875 2.1875q0.59375 0.9375 1.515625 1.484375q0.9375 0.53125 2.015625 0.53125q1.15625 0 2.171875 -0.578125q1.03125 -0.578125 1.40625 -1.515625l1.828125 0.515625q-0.40625 0.90625 -1.21875 1.625q-0.796875 0.71875 -1.890625 1.125q-1.09375 0.40625 -2.359375 0.40625zm-4.21875 -7.25l8.53125 0q-0.09375 -1.21875 -0.703125 -2.15625q-0.59375 -0.9375 -1.53125 -1.453125q-0.921875 -0.53125 -2.0625 -0.53125q-1.09375 0 -2.03125 0.53125q-0.9375 0.515625 -1.53125 1.453125q-0.578125 0.9375 -0.671875 2.15625zm19.480835 -3.671875q-1.578125 0.03125 -2.796875 0.8125q-1.21875 0.78125 -1.71875 2.140625l0 7.734375l-2.109375 0l0 -12.53125l1.96875 0l0 2.90625q0.640625 -1.296875 1.703125 -2.09375q1.078125 -0.8125 2.25 -0.90625q0.25 0 0.40625 0q0.171875 0 0.296875 0.03125l0 1.90625z" fill-rule="nonzero"/></g></svg>